<svg width="20" height="20" viewBox="0 0 20 20" fill="none" xmlns="http://www.w3.org/2000/svg">
<path d="M19.892 6.22403C19.641 5.61903 18.851 5.25703 17.778 5.25703C17.5705 5.25854 17.3632 5.27056 17.157 5.29303C17.7127 4.88866 18.1194 4.31217 18.314 3.65303C18.3624 3.38768 18.3419 3.11432 18.2544 2.85918C18.1668 2.60405 18.0152 2.37569 17.814 2.19603C17.6319 1.99421 17.4013 1.84232 17.144 1.7548C16.8867 1.66729 16.6113 1.64705 16.344 1.69603C15.685 1.88891 15.108 2.29341 14.702 2.84703C14.7241 2.63975 14.7358 2.43148 14.737 2.22303C14.737 1.15003 14.376 0.360028 13.77 0.110028C13.544 0.0272706 13.2981 0.0159836 13.0656 0.0776977C12.8331 0.139412 12.6251 0.271142 12.47 0.455028C12.305 0.619028 11.833 1.09703 11.613 3.62803C11.1203 3.48796 10.5961 3.50646 10.1145 3.68091C9.63301 3.85537 9.21857 4.17692 8.92996 4.60003L0.878958 16.1C0.676682 16.3889 0.582649 16.7398 0.613372 17.0911C0.644095 17.4424 0.797611 17.7717 1.04696 18.021L1.98196 18.956C2.23133 19.2054 2.56058 19.3589 2.91189 19.3896C3.26319 19.4203 3.61409 19.3263 3.90296 19.124L15.403 11.073C15.8267 10.7841 16.1484 10.3688 16.3224 9.88638C16.4964 9.40393 16.5137 8.8789 16.372 8.38603C18.054 8.24003 19.12 7.95203 19.544 7.52803C19.7289 7.37278 19.8616 7.1643 19.9239 6.93098C19.9861 6.69765 19.975 6.4508 19.892 6.22403ZM16.536 2.67803C16.6433 2.65971 16.7537 2.67097 16.8552 2.71061C16.9567 2.75025 17.0454 2.81677 17.112 2.90303C17.1961 2.96824 17.2609 3.05502 17.2997 3.15416C17.3384 3.25329 17.3496 3.36106 17.332 3.46603C17.177 4.28103 15.532 5.30703 14.352 5.86603L14.136 5.65003C14.693 4.47103 15.718 2.83303 16.536 2.67803ZM13.182 1.16103C13.287 1.06103 13.366 1.02203 13.394 1.03303C13.503 1.07803 13.742 1.44003 13.742 2.22203C13.6977 3.09916 13.5493 3.96792 13.3 4.81003L12.751 4.26103C12.701 4.21103 12.642 4.17603 12.588 4.13103C12.723 2.13903 13.021 1.32203 13.182 1.16103ZM3.32996 18.3C3.23361 18.3676 3.1165 18.3991 2.99925 18.3888C2.882 18.3786 2.77212 18.3273 2.68896 18.244L1.75396 17.309C1.67149 17.2257 1.6209 17.1161 1.61103 16.9993C1.60116 16.8825 1.63263 16.766 1.69996 16.67L3.20696 14.518L5.48196 16.8L3.32996 18.3ZM14.83 10.248L12.967 11.548L11.226 9.80603C11.1322 9.71214 11.005 9.65934 10.8723 9.65925C10.7396 9.65916 10.6123 9.71177 10.5185 9.80553C10.4246 9.89928 10.3718 10.0265 10.3717 10.1592C10.3716 10.2919 10.4242 10.4191 10.518 10.513L12.136 12.131L9.63596 13.878L7.84996 12.092C7.75566 12.0009 7.62936 11.9506 7.49826 11.9517C7.36716 11.9528 7.24175 12.0054 7.14905 12.0981C7.05634 12.1908 7.00376 12.3162 7.00262 12.4473C7.00148 12.5784 7.05188 12.7047 7.14296 12.799L8.80896 14.466L6.30896 16.213L3.78696 13.686L7.86296 7.86303L9.02996 9.03003C9.07608 9.07778 9.13125 9.11588 9.19226 9.14208C9.25326 9.16828 9.31887 9.18208 9.38526 9.18265C9.45165 9.18323 9.51749 9.17058 9.57893 9.14544C9.64038 9.1203 9.69621 9.08317 9.74316 9.03623C9.7901 8.98928 9.82723 8.93345 9.85237 8.87201C9.87751 8.81056 9.89016 8.74472 9.88958 8.67833C9.88901 8.61194 9.87521 8.54633 9.84901 8.48533C9.8228 8.42432 9.78471 8.36915 9.73696 8.32303L8.44596 7.03103L9.74596 5.16803C9.8715 4.98814 10.0352 4.83815 10.2253 4.72874C10.4154 4.61933 10.6273 4.55319 10.846 4.53503C10.89 4.53503 10.934 4.52903 10.977 4.52903C11.3745 4.52911 11.7558 4.68701 12.037 4.96803L15.03 7.96103C15.0641 7.99866 15.0958 8.0384 15.125 8.08003C15.1531 8.17634 15.2104 8.26158 15.289 8.32403C15.4637 8.64518 15.5134 9.01966 15.4285 9.37529C15.3436 9.73092 15.13 10.0425 14.829 10.25L14.83 10.248ZM18.838 6.81603C18.675 6.97803 17.856 7.27603 15.869 7.41603C15.824 7.36203 15.788 7.30303 15.738 7.25303L15.189 6.70403C16.0307 6.45211 16.8995 6.30171 17.777 6.25603C18.559 6.25603 18.921 6.49603 18.967 6.60503C18.978 6.63103 18.944 6.71203 18.839 6.81803L18.838 6.81603Z" fill="#3A9B7A"/>
</svg>
