<svg width="16" height="18" viewBox="0 0 16 18" fill="none" xmlns="http://www.w3.org/2000/svg">
<path fill-rule="evenodd" clip-rule="evenodd" d="M7.77346 17.2613C7.86574 17.3096 7.96893 17.3341 8.07212 17.3333C8.17531 17.3324 8.27767 17.3071 8.37079 17.2581L11.344 15.6687C12.1872 15.2192 12.8474 14.7167 13.3625 14.1316C14.4825 12.8568 15.0941 11.2298 15.0832 9.55216L15.048 4.01828C15.0446 3.38089 14.626 2.81213 14.0068 2.60539L8.47566 0.749596C8.14259 0.636827 7.77765 0.639278 7.45046 0.755316L1.94025 2.6773C1.32446 2.89222 0.913376 3.46505 0.916732 4.10326L0.951967 9.63306C0.962874 11.3132 1.59544 12.9328 2.73389 14.1945C3.25404 14.7714 3.92017 15.2666 4.77254 15.7087L7.77346 17.2613ZM6.98635 10.7574C7.11052 10.8767 7.27159 10.9355 7.43267 10.9339C7.59375 10.9331 7.75399 10.8726 7.87648 10.7517L11.1257 7.54837C11.3699 7.30731 11.3673 6.91997 11.1207 6.68217C10.8732 6.44437 10.4747 6.44601 10.2306 6.68707L7.42344 9.45401L6.27408 8.3492C6.02659 8.1114 5.62893 8.11385 5.38396 8.35492C5.13983 8.59598 5.14234 8.98332 5.38983 9.22112L6.98635 10.7574Z" fill="#3669C9"/>
</svg>
